<svg viewBox="0 0 340 200" xmlns="http://www.w3.org/2000/svg" font-family="Arial,sans-serif">
  <rect width="340" height="200" fill="#edf5ff"/>
  <rect width="340" height="130" fill="#dff0ff" rx="8"/>
  <ellipse cx="180" cy="80" rx="55" ry="30" fill="#74b9ff" stroke="#2e86de" stroke-width="2"/>
  <circle cx="235" cy="65" r="22" fill="#74b9ff" stroke="#2e86de" stroke-width="2"/>
  <circle cx="243" cy="60" r="5" fill="white" stroke="#0d4a88" stroke-width="1.5"/>
  <circle cx="244" cy="60" r="2.5" fill="#0d4a88"/>
  <polygon points="258,63 278,67 258,71" fill="#f39c12" stroke="#c77b0a" stroke-width="1"/>
  <ellipse cx="165" cy="75" rx="42" ry="18" fill="#2e86de" stroke="#1a6ab8" stroke-width="1.5"/>
  <polygon points="125,80 95,65 95,95" fill="#1a6ab8" stroke="#0d4a88" stroke-width="1.5"/>
  <line x1="185" y1="110" x2="175" y2="130" stroke="#c77b0a" stroke-width="2"/>
  <line x1="200" y1="110" x2="210" y2="130" stroke="#c77b0a" stroke-width="2"/>
  <ellipse cx="193" cy="148" rx="40" ry="14" fill="#c8a87a" stroke="#8B6340" stroke-width="2"/>
  <ellipse cx="193" cy="143" rx="38" ry="9" fill="#dbb98a" stroke="#8B6340" stroke-width="1.5"/>
  <ellipse cx="180" cy="141" rx="10" ry="7" fill="#fffde7" stroke="#c77b0a" stroke-width="1"/>
  <ellipse cx="200" cy="140" rx="10" ry="7" fill="#fffde7" stroke="#c77b0a" stroke-width="1"/>
  <text x="280" y="65" font-size="10" fill="#0d4a88" font-weight="bold">BEAK</text>
  <line x1="278" y1="67" x2="270" y2="67" stroke="#0d4a88" stroke-width="1"/>
  <text x="145" y="55" font-size="10" fill="#0d4a88" font-weight="bold">FEATHER</text>
  <line x1="163" y1="60" x2="163" y2="69" stroke="#0d4a88" stroke-width="1"/>
  <text x="93" y="55" font-size="10" fill="#0d4a88" font-weight="bold">TAIL</text>
  <line x1="105" y1="60" x2="100" y2="74" stroke="#0d4a88" stroke-width="1"/>
  <text x="100" y="140" font-size="10" fill="#8B6340" font-weight="bold">NEST</text>
  <line x1="120" y1="142" x2="153" y2="143" stroke="#8B6340" stroke-width="1"/>
  <text x="235" y="100" font-size="10" fill="#0d4a88" font-weight="bold">WING</text>
  <line x1="235" y1="97" x2="210" y2="88" stroke="#0d4a88" stroke-width="1"/>
  <text x="170" y="193" text-anchor="middle" font-size="11" fill="#0d4a88" font-weight="bold">Parts of a Bird</text>
</svg>
